<?xml version="1.0" encoding="utf-8"?><svg viewBox="0 0 31 30" xmlns="http://www.w3.org/2000/svg" xmlns:xlink="http://www.w3.org/1999/xlink"><style>:root>svg{display:none}:root>svg:target{display:block}</style><svg fill="none" viewBox="0 0 19 23" id="call" xmlns="http://www.w3.org/2000/svg"><path d="M5.528 15.277l.054-.2-.103-.18a7.03 7.03 0 01-.927-3.45c0-3.836 3.12-6.947 6.974-6.947 1.853 0 3.608.728 4.926 2.042 1.311 1.306 1.997 3.053 2.048 4.86-.004 3.834-3.122 6.942-6.974 6.942a7.142 7.142 0 01-3.322-.829l-.172-.09-.187.05-3.136.822.819-3.02zm7.015.125l.032.013.032.008c.487.12.972.122 1.348.06.283-.041.625-.199.903-.381.27-.177.606-.459.742-.822.095-.252.145-.493.162-.702a1.484 1.484 0 00-.05-.57l-.038-.112-.084-.084a1.045 1.045 0 00-.235-.167 6.67 6.67 0 00-.239-.123c-.13-.08-.409-.223-.65-.343-.139-.07-.28-.138-.397-.193a3.293 3.293 0 00-.295-.127l-.013-.005c-.064-.022-.236-.08-.418-.064a.697.697 0 00-.355.134.8.8 0 00-.236.29 2.357 2.357 0 01-.227.31c-.066.08-.13.154-.18.208a10.81 10.81 0 00-.054-.025c-.27-.123-.71-.324-1.27-.801a4.978 4.978 0 01-.85-1.013 1.694 1.694 0 00.064-.083l.02-.024c.045-.06.08-.102.108-.13l-.352-.354.352.354c.163-.162.246-.327.298-.432l.005-.01a.83.83 0 000-.761l-.036-.073-.007-.007a20.012 20.012 0 01-.3-.718 34.415 34.415 0 00-.22-.53c-.1-.235-.246-.444-.48-.55-.203-.092-.455-.065-.397-.065h0-.002 0-.001 0-.002 0-.002 0-.001 0-.002 0-.002 0-.001 0-.002 0-.002 0-.002 0-.002 0-.002 0-.001 0H9.2h0-.002 0-.002 0-.002 0-.002 0-.002 0-.002 0-.002 0-.001 0-.002 0-.002 0-.002 0-.002 0-.002 0-.001 0-.002 0-.002 0-.002 0-.002 0-.001 0-.002 0-.002 0-.001 0-.002 0-.002 0-.001 0-.002 0-.002 0-.001 0-.002 0-.002 0-.001 0-.002 0-.002 0-.001 0-.002 0-.001 0-.002 0-.002 0-.001 0-.002 0-.001 0-.002 0-.001 0-.003 0-.002 0-.002 0-.001 0-.002 0-.001 0-.002 0-.001 0-.002 0-.001 0-.002 0-.001 0-.002 0-.001 0H9.1h0H9.1h0-.002 0-.001 0-.002 0-.001 0-.002 0-.001 0-.002 0-.001 0-.002 0-.002 0-.002 0-.001 0-.002 0-.001 0-.002 0-.001 0-.002 0-.001 0-.002 0-.002 0-.002 0-.001 0-.002 0-.001 0-.002 0-.001 0-.002 0-.002 0-.002 0-.001 0-.002 0-.001 0-.002 0-.001 0-.002 0-.002 0-.002 0-.001 0-.002 0-.001 0-.002 0-.001 0-.002 0-.002 0-.002 0-.001 0-.002 0-.001 0-.002 0-.001 0-.002 0-.002 0-.002 0-.001 0-.002 0-.001 0-.002 0-.001 0-.002 0-.001 0-.002 0H9h0-.002 0-.002 0-.003 0-.002 0-.001 0-.002 0-.001 0-.002 0-.001 0-.002 0-.001 0-.002 0-.001 0-.002 0-.001 0-.002 0-.001 0-.002 0-.001 0-.003 0-.002 0-.002 0-.001 0-.002 0-.001 0-.002 0-.001 0-.002 0-.001 0-.002 0-.002 0-.001 0-.002 0-.001 0-.002 0-.002 0-.001 0-.002 0-.002 0-.001 0-.002 0-.002 0-.001 0-.002 0-.002 0-.001 0-.002 0-.002 0-.001 0-.002 0-.002 0-.002 0-.002 0-.001 0-.002 0-.002 0-.002 0-.002 0H8.9h0H8.9h0-.002 0-.002 0-.002 0-.002 0-.002 0-.002 0-.002 0-.001 0-.002 0-.002 0-.002 0-.002 0-.002 0-.001 0-.002 0-.002 0-.001 0-.002 0-.002 0-.001 0-.002 0-.017c-.164 0-.598-.001-.907.408l-.028.034c-.071.084-.25.295-.382.532a2.618 2.618 0 00-.317 1.297c0 .582.208 1.12.409 1.507.174.334.367.601.48.729.192.291 1.437 2.147 3.375 2.959.316.156.633.269.859.35.084.03.156.055.21.076zm-.282-2.58l.002-.002a.008.008 0 01-.002.002z" fill="#fff" stroke="#fff"/></svg><svg viewBox="0 0 31 13" id="left" xmlns="http://www.w3.org/2000/svg"><path fill-rule="evenodd" clip-rule="evenodd" d="M7.4 1.74L6 .277 0 6.552l6 6.276 1.4-1.464-3.6-3.766h26.6V5.506H3.8l3.6-3.765z"/></svg><svg fill="none" viewBox="0 0 30 30" id="location" xmlns="http://www.w3.org/2000/svg"><g clip-path="url(#cclip0_34_1303)" fill="#EDC5A2"><path d="M25.872 7.861c-1.07-3.455-3.848-6.256-7.25-7.31C14.997-.571 11.22.038 8.256 2.222A11.611 11.611 0 004.85 6.214a11.514 11.514 0 00-1.278 5.266c0 2.493.789 4.862 2.28 6.851L15.002 30l9.137-11.654.011-.015c2.233-2.977 2.86-6.793 1.723-10.47zm-3.124 9.408L15 27.151 7.254 17.27a9.588 9.588 0 01-1.923-5.79A9.784 9.784 0 019.3 3.638c2.508-1.849 5.716-2.362 8.8-1.406 2.857.884 5.19 3.24 6.091 6.15.968 3.13.442 6.368-1.444 8.888z"/><path d="M15.002 5.326a6.16 6.16 0 00-6.154 6.154A6.16 6.16 0 0015 17.633a6.16 6.16 0 006.154-6.153 6.16 6.16 0 00-6.154-6.154zm0 10.55a4.4 4.4 0 01-4.396-4.396 4.4 4.4 0 014.396-4.396 4.4 4.4 0 014.395 4.396 4.4 4.4 0 01-4.395 4.395z"/></g><defs><clipPath id="cclip0_34_1303"><path fill="#fff" d="M0 0h30v30H0z"/></clipPath></defs></svg><svg fill="none" viewBox="0 0 26 26" id="message" xmlns="http://www.w3.org/2000/svg"><path d="M21.973 16.11l-4.21-4.95 3.74-2.134a.762.762 0 00-.755-1.323L13 12.123l-7.747-4.42a.762.762 0 10-.755 1.323l3.74 2.134-4.21 4.95a.762.762 0 101.16.987l4.396-5.17 3.039 1.735a.762.762 0 00.755 0l3.038-1.734 4.397 5.169a.762.762 0 001.16-.987z" fill="#EDC5A2"/><path d="M23.715 4.113H2.285A2.288 2.288 0 000 6.398v13.204a2.288 2.288 0 002.285 2.285h21.43A2.288 2.288 0 0026 19.602V6.398a2.288 2.288 0 00-2.285-2.285zm.762 15.489c0 .42-.342.761-.762.761H2.285a.763.763 0 01-.762-.761V6.398c0-.42.342-.761.762-.761h21.43c.42 0 .762.341.762.761v13.204z" fill="#EDC5A2"/></svg><svg viewBox="0 0 31 13" id="right" xmlns="http://www.w3.org/2000/svg"><path fill-rule="evenodd" clip-rule="evenodd" d="M23 1.74L24.4.277l6 6.276-6 6.276-1.4-1.464 3.6-3.766H0V5.506h26.6L23 1.741z"/></svg><svg fill="none" viewBox="0 0 21 20" id="star" xmlns="http://www.w3.org/2000/svg"><path d="M17.866 6.896l-4.973-.721L10.67 1.68a.63.63 0 00-1.124 0L7.323 6.175l-4.973.72a.626.626 0 00-.347 1.067l3.598 3.498-.85 4.94a.622.622 0 00.572.728.627.627 0 00.337-.07l4.448-2.332 4.448 2.332a.624.624 0 00.909-.658l-.85-4.94 3.598-3.498a.624.624 0 00-.347-1.066z" fill="#EDC5A2"/></svg><svg fill="none" viewBox="0 0 21 25" id="vk" xmlns="http://www.w3.org/2000/svg"><mask id="ga" fill="#fff"><path d="M20.673 16.876c0-.083-.083-.083-.083-.166-.332-.664-1.08-1.495-2.076-2.408-.498-.415-.747-.747-.913-.913-.25-.332-.25-.581-.166-.913.083-.25.415-.664.996-1.412.332-.415.498-.664.747-.913 1.246-1.66 1.827-2.74 1.66-3.238l-.082-.083c-.083-.083-.166-.166-.332-.166-.166-.083-.415-.083-.665 0H16.023l-.083.083c-.083.083-.083.083-.083.166-.332.913-.747 1.66-1.162 2.49-.249.416-.498.831-.747 1.163-.25.332-.415.581-.581.747-.166.166-.332.25-.415.416-.084.083-.25.166-.25.083-.082 0-.165 0-.165-.083l-.25-.25c-.083-.082-.083-.249-.166-.415v-.415-.498-.498-.913-.747-.582-.498c0-.083-.083-.249-.083-.332l-.249-.249c-.083-.083-.249-.083-.332-.166A7.447 7.447 0 009.963 6c-1.329 0-2.242.083-2.574.25-.166.082-.332.165-.415.331-.166.166-.166.25-.083.25.415.082.747.248.913.497l.083.166c.083.083.083.25.166.499s.083.498.083.83v1.328c0 .415-.083.664-.083.913 0 .25-.083.415-.166.498-.083.167-.083.25-.166.25 0 0 0 .083-.083.083s-.166.083-.332.083c-.083 0-.249-.083-.332-.166a1 1 0 01-.415-.415c-.166-.167-.332-.416-.498-.748-.166-.332-.415-.664-.581-1.162l-.167-.332c-.083-.166-.249-.498-.415-.913-.166-.416-.332-.748-.498-1.163a1.146 1.146 0 00-.249-.332h-.083s-.083-.083-.166-.083-.166-.083-.249-.083H.664c-.332 0-.498.083-.581.166L0 6.83v.166c0 .083 0 .166.083.332.415.997.913 1.993 1.411 2.99.499.912.997 1.743 1.329 2.324.415.581.747 1.162 1.162 1.66.415.498.664.83.747.997l.332.332.25.249c.166.166.415.415.747.664.332.249.747.498 1.162.747.415.25.913.415 1.411.581.582.166 1.08.25 1.578.166h1.245a.754.754 0 00.581-.249l.083-.083c0-.083.083-.083.083-.166v-.332c0-.332 0-.581.083-.83.083-.25.083-.415.166-.581.084-.166.167-.25.25-.332l.166-.166h.083c.166-.083.415 0 .58.166.25.166.499.415.665.664.166.249.415.498.747.83.332.332.581.581.747.664l.25.166c.165.083.332.166.58.25.25.082.416.082.582.082l2.822-.083c.25 0 .499-.083.665-.166.166-.083.249-.166.249-.332v-.332c-.166-.166-.166-.249-.166-.332z"/></mask><path d="M20.673 16.876c0-.083-.083-.083-.083-.166-.332-.664-1.08-1.495-2.076-2.408-.498-.415-.747-.747-.913-.913-.25-.332-.25-.581-.166-.913.083-.25.415-.664.996-1.412.332-.415.498-.664.747-.913 1.246-1.66 1.827-2.74 1.66-3.238l-.082-.083c-.083-.083-.166-.166-.332-.166-.166-.083-.415-.083-.665 0H16.023l-.083.083c-.083.083-.083.083-.083.166-.332.913-.747 1.66-1.162 2.49-.249.416-.498.831-.747 1.163-.25.332-.415.581-.581.747-.166.166-.332.25-.415.416-.084.083-.25.166-.25.083-.082 0-.165 0-.165-.083l-.25-.25c-.083-.082-.083-.249-.166-.415v-.415-.498-.498-.913-.747-.582-.498c0-.083-.083-.249-.083-.332l-.249-.249c-.083-.083-.249-.083-.332-.166A7.447 7.447 0 009.963 6c-1.329 0-2.242.083-2.574.25-.166.082-.332.165-.415.331-.166.166-.166.25-.083.25.415.082.747.248.913.497l.083.166c.083.083.083.25.166.499s.083.498.083.83v1.328c0 .415-.083.664-.083.913 0 .25-.083.415-.166.498-.083.167-.083.25-.166.25 0 0 0 .083-.083.083s-.166.083-.332.083c-.083 0-.249-.083-.332-.166a1 1 0 01-.415-.415c-.166-.167-.332-.416-.498-.748-.166-.332-.415-.664-.581-1.162l-.167-.332c-.083-.166-.249-.498-.415-.913-.166-.416-.332-.748-.498-1.163a1.146 1.146 0 00-.249-.332h-.083s-.083-.083-.166-.083-.166-.083-.249-.083H.664c-.332 0-.498.083-.581.166L0 6.83v.166c0 .083 0 .166.083.332.415.997.913 1.993 1.411 2.99.499.912.997 1.743 1.329 2.324.415.581.747 1.162 1.162 1.66.415.498.664.83.747.997l.332.332.25.249c.166.166.415.415.747.664.332.249.747.498 1.162.747.415.25.913.415 1.411.581.582.166 1.08.25 1.578.166h1.245a.754.754 0 00.581-.249l.083-.083c0-.083.083-.083.083-.166v-.332c0-.332 0-.581.083-.83.083-.25.083-.415.166-.581.084-.166.167-.25.25-.332l.166-.166h.083c.166-.083.415 0 .58.166.25.166.499.415.665.664.166.249.415.498.747.83.332.332.581.581.747.664l.25.166c.165.083.332.166.58.25.25.082.416.082.582.082l2.822-.083c.25 0 .499-.083.665-.166.166-.083.249-.166.249-.332v-.332c-.166-.166-.166-.249-.166-.332z" fill="#fff"/><path d="M20.59 16.71h1v-.236l-.106-.211-.894.447zm-2.076-2.408l.676-.737-.018-.016-.018-.015-.64.768zm-.913-.913l-.8.6.043.057.05.05.707-.707zm-.166-.913l-.949-.316-.012.036-.01.037.97.243zm.996-1.412l-.78-.624-.01.01.79.614zm.747-.913l.707.707.05-.05.043-.057-.8-.6zm1.66-3.238l.95-.316-.075-.224-.167-.167-.707.707zm-.082-.083l.707-.707-.707.707zm-.332-.166l-.448.895.212.105h.236v-1zm-.665 0v1h.163l.154-.051-.317-.949zm-3.736 0v-1h-.414l-.293.293.707.707zm-.083.083l-.707-.707.707.707zm-.083.166l.94.342.06-.166v-.176h-1zm-1.162 2.49l.857.515.02-.032.018-.035-.895-.447zm-1.743 2.326l.707.707.114-.115.073-.145-.894-.447zm-.25.083h1v-1h-1v1zm-.165-.083h1v-.415l-.293-.293-.707.708zm-.416-.665h-1v.236l.106.212.894-.448zm-.083-4.483h1v-.414l-.293-.293-.707.707zm-.58-.415l.706-.707-.214-.214-.297-.06-.196.981zm-4.484.415l.707.707.115-.114.072-.146-.894-.447zm-.083.25l.196-.981-.097-.02h-.1v1zm.913.497l.895-.447-.028-.056-.035-.051-.832.554zm.083.166l-.894.448.072.145.115.115.707-.708zm0 4.069l-.707-.708-.115.115-.072.145.894.447zm-.166.249v-1h-1v1h1zm-.747 0l.707-.707-.115-.115-.145-.073-.447.895zm-.415-.415l.894-.448-.072-.145-.115-.115-.707.707zm-1.08-1.91l.95-.316-.023-.068-.032-.063-.894.447zm-.166-.332l.895-.447-.895.447zM4.4 7.079l.929-.371-.016-.039-.018-.037-.895.447zm-.249-.332l.707-.707-.293-.293h-.414v1zm-.083 0l-.707.707.293.293h.414v-1zM0 6.83l-.707-.707-.293.293v.414h1zm.083.498l.923-.384-.013-.032-.016-.03-.894.446zm1.411 2.99l-.894.446.008.016.009.016.877-.479zm1.329 2.324l-.868.496.025.044.029.041.814-.581zm1.91 2.657l-.895.447.072.145.115.115.707-.707zm.331.332l-.707.707.707-.707zm.25.249l.707-.707-.708.707zm3.32 1.992l-.316.949.02.007.022.006.274-.962zm1.578.166v-1h-.083l-.082.014.165.986zm1.826-.249l.707.707-.707-.707zm.083-.083l.708.707.292-.293v-.414h-1zm.748-2.407v-1h-.415l-.293.292.708.708zm.083 0v1h.236l.21-.106-.446-.894zm.58.166l-.706.707.07.07.082.055.555-.832zm2.16 2.158l.554-.832-.052-.034-.055-.028-.448.894zm.248.166l-.554.832.052.035.055.028.447-.895zm1.163.332v1H17.132l-.03-1zm2.822-.083v-1H19.896l.03 1zm.914-.83h1v-.414l-.293-.293-.707.707zm.834-.332a1.1 1.1 0 00-.277-.729c-.029-.033-.056-.06-.058-.061l.028.03a.884.884 0 01.19.352.9.9 0 01.034.242h-2a1.1 1.1 0 00.276.729l.058.061-.027-.03a.873.873 0 01-.19-.352.9.9 0 01-.034-.242h2zm-.189-.613c-.421-.843-1.292-1.78-2.294-2.698l-1.352 1.474c.99.908 1.614 1.633 1.857 2.118l1.79-.894zm-2.33-2.729c-.465-.388-.56-.566-.846-.852l-1.414 1.414c.046.046.449.532.98.974l1.28-1.536zm-.753-.745c-.027-.035-.032-.05-.03-.045a.218.218 0 01.013.047c.002.022 0 .032.001.024a.754.754 0 01.02-.097l-1.94-.485a2.156 2.156 0 00-.062.84c.05.35.198.649.398.916l1.6-1.2zm-.017.003c-.014.042-.002-.009.17-.247.155-.211.368-.483.666-.867l-1.578-1.228c-.283.364-.526.674-.705.919-.158.218-.354.5-.45.79l1.897.633zm.828-1.103c.393-.492.476-.633.673-.83l-1.414-1.415c-.3.3-.55.657-.82.996l1.561 1.25zm.766-.938c.634-.844 1.13-1.581 1.447-2.194.16-.306.291-.614.368-.913.073-.285.122-.663-.006-1.047l-1.897.632c-.045-.134-.006-.19-.034-.082a2.492 2.492 0 01-.206.489c-.242.466-.66 1.1-1.272 1.915l1.6 1.2zm1.568-4.545l-.083-.083-1.414 1.414.083.083 1.414-1.414zm-.083-.083c-.094-.093-.434-.459-1.04-.459v2a.646.646 0 01-.393-.145l.019.018 1.414-1.414zm-.592-.353c-.487-.244-1.032-.186-1.428-.054l.633 1.897c.032-.011.05-.011.047-.011a.44.44 0 01-.146-.043l.894-1.79zm-1.111-.106h-3.155v2h3.154v-2zm-3.155 0h-.003-.001-.001-.001-.001-.002-.001-.001-.002-.001-.002-.001-.002-.002-.001-.001-.001-.001-.001-.001-.002-.001-.001-.001-.001-.002-.001-.003-.001-.001-.001-.005-.001-.001-.001-.001-.001-.001-.001-.001-.001-.006-.001-.001-.001-.001-.001-.001-.001H16.52h-.001-.001-.001-.001-.003-.001-.001-.002-.001-.002-.001-.002-.002-.002-.002-.002-.002-.001-.002-.001-.003-.001-.003-.001-.001-.001-.001H16.465h-.001-.001-.001-.003-.001-.001-.004-.004-.003-.004-.001-.004-.001-.001-.001-.001-.001-.003-.001-.001-.001-.001-.005-.001-.001-.003-.003-.003-.003-.003-.001-.003-.001-.003-.001-.003-.001-.001-.003-.001-.001-.001-.003-.001-.001-.001-.001-.005-.001-.001-.001-.001-.001-.007-.002-.002v2H16.605v-2zm-.25 0h-.006-.001-.001-.001-.001-.001-.001-.001-.001-.001-.001-.006-.001-.001-.001-.001-.001-.001-.001-.005-.001-.001-.001-.001-.001-.004-.001-.001-.001-.001-.003-.001-.001-.001-.003-.001-.001-.001-.003-.001-.001-.002-.001-.001-.003-.001-.002-.001-.001-.002-.001-.002-.001-.002-.001-.002-.002-.001-.002-.002-.002-.002-.002-.002-.002-.001-.002-.001-.002-.001-.002-.001-.001-.003-.001-.001-.001-.001-.001-.001-.001-.001-.001-.001-.001-.003-.001-.002-.002-.002-.001-.002-.001-.001-.001-.001-.002-.002-.004-.002-.001-.001-.001-.002-.002-.001-.001v2H16.356v-2zm-.166 0h-.082v2h.082v-2zm-.082 0h-.084v2h.084v-2zm-.79.293l-.084.083 1.415 1.414.082-.083-1.414-1.414zm-.084.083c-.013.013-.05.05-.084.088a1.092 1.092 0 00-.286.637c-.007.073-.006.146-.006.148h2c0-.039.002.003-.003.05a.908.908 0 01-.092.314c-.053.108-.114.175-.126.188-.01.012-.017.018.012-.01L15.233 6.04zm-.315.532c-.307.842-.68 1.51-1.117 2.385l1.788.894c.393-.785.85-1.612 1.208-2.596l-1.88-.683zm-1.08 2.317c-.257.428-.478.795-.69 1.077l1.6 1.2c.286-.381.563-.845.805-1.248L13.838 8.89zm-.69 1.077c-.306.408-.39.541-.488.64l1.414 1.415c.233-.234.482-.598.674-.855l-1.6-1.2zm-.488.64c-.049.049-.048.04-.183.156a1.66 1.66 0 00-.42.52l1.789.894c-.05.1-.112.142-.067.104a2.37 2.37 0 01.041-.034l.066-.055c.051-.043.117-.1.188-.17l-1.414-1.415zm-.415.415c.049-.049.1-.085.18-.117.011-.005.198-.087.457-.047a.969.969 0 01.82.955h-2a1.035 1.035 0 00.876 1.022c.292.045.525-.048.59-.073.183-.074.358-.193.49-.325l-1.413-1.415zm.458-.21c-.028 0-.015 0 .005.002.017 0 .096.006.197.04a.926.926 0 01.632.876h-2a1.074 1.074 0 001.038 1.08c.059.003.114.003.128.003v-2zm.54.21l-.124-.124-.124-.125-1.415 1.415.125.124.124.125 1.415-1.415zm-.248-.249a.763.763 0 01.16.232c.01.021.014.036.015.038l-.004-.014-.007-.023-.009-.033a1.872 1.872 0 00-.134-.355l-1.79.895c-.01-.02-.016-.047.017.066.011.04.037.129.078.224.043.1.12.246.26.385l1.414-1.415zm.126.292v-.002-.002-.001-.001-.001-.001-.001-.001-.001-.001-.001-.001-.001-.001-.001-.001-.001-.001-.001-.001-.001-.002-.002-.002-.002-.002-.002-.002-.002-.001-.001-.001-.001-.001-.001-.001-.001-.001-.001-.001-.001-.001-.001-.001-.001-.002-.002-.002V11v-.002-.002-.002-.001-.001-.001-.001-.001-.001-.001-.001-.001-.001-.001-.001-.002-.002-.002-.002-.002-.002-.001-.001-.001-.001-.001-.001-.001-.001-.001-.001-.002-.002-.002-.002-.002-.001-.001-.001-.001-.001-.001-.001-.001-.002-.002-.002-.002-.001-.001-.001-.001-.001-.001-.001-.002-.002-.002-.002-.001-.001-.001-.001-.001-.001-.002-.002-.002-.001-.001-.001-.001-.001-.001-.002-.002-.002-.001-.001-.001-.001-.001-.002-.002-.001-.001-.001-.001-.001-.002-.002-.001-.001-.001-.001-.001-.002-.002-.001-.001-.001-.001-.001-.002-.002-.001-.001-.001-.002-.002-.001-.001-.001-.001-.002-.002-.001-.001-.001-.002-.001-.001-.001-.001-.002-.002-.001-.001-.002-.001-.001-.001-.001-.002-.001-.001-.001-.002-.001-.001-.001-.001-.002-.001-.001-.001-.002-.001-.001-.002-.001-.001-.001-.002-.001-.001-.002-.001-.001-.001-.002-.001-.001-.002-.001-.001-.002-.001-.001-.002-.001-.002-.001-.001-.002-.001-.002-.001-.001-.002-.001-.002-.001-.002-.001-.002-.001-.002-.001-.002-.001-.002-.001-.002-.002-.001-.002-.001-.001-.001-.002-.001-.001-.001-.002-.002-.001-.001-.001-.001-.001-.002-.002-.002-.002-.002-.002-.002-.002-.001-.001-.001-.001-.001-.002-.001-.001-.001-.002-.001-.001-.001-.001-.001-.001-.002-.001-.001-.001-.001-.001-.002-.001-.001-.001-.001-.001-.001-.002-.001-.001-.001-.001-.001-.001-.001-.001-.001-.001-.001-.001-.001-.001-.001-.001-.001-.001h-2V11.065h2zm0-.415v-.001-.001-.001-.001-.001-.001-.001-.001-.001-.001-.001-.002-.001-.001-.001-.001-.001-.001-.001-.002-.001-.001-.001-.002-.002-.002-.002-.001-.001-.001-.001-.001-.002-.001-.002-.002-.001-.002-.001-.002-.001-.002-.001-.001-.002-.001-.002-.001-.001-.002-.001-.001-.001-.002-.001-.001-.002-.001-.001-.001-.001-.002-.001-.001-.001-.001-.002-.002-.001-.001-.001-.002-.002-.001-.001-.001-.001-.001-.002-.002-.002-.001-.001-.001-.001-.001-.001-.002-.002-.002-.002-.002-.001-.001-.001-.001-.001-.001-.001-.001-.001-.001-.001-.001-.001-.001-.001-.001-.001-.001-.001-.001-.001-.001-.001-.001-.001-.001-.001-.001-.001-.001-.001-.001-.001-.001-.001-.001-.001-.001-.001-.001-.001-.001-.001-.001-.002-.002-.002-.002-.002-.002-.001-.001-.001-.001-.001-.001-.001-.001-.001-.002-.002-.002-.002-.001-.001-.001-.001-.001-.001-.001-.002-.002-.002-.002-.001-.001-.001-.001-.002-.002-.002-.002-.001-.001-.001-.001-.002-.002-.002-.001-.001-.001-.001-.002-.002-.002-.001-.001-.001-.001-.002-.002-.002-.001-.001-.001-.002-.002-.002-.001-.001-.001-.002-.002-.002-.001-.001-.001-.002-.002-.002-.001-.001-.001-.002-.002-.002-.001-.001-.001-.002-.002-.001-.001-.001-.001-.002-.002-.002-.001-.001-.001-.002-.002-.001-.001-.001-.001-.002-.002-.002-.001-.001-.002-.002-.002-.001-.001-.001-.002-.002-.002-.001-.001-.002-.002-.002-.001-.001-.001-.002-.002-.002-.001-.001-.001-.001-.002-.002-.001-.001-.001-.001-.002-.002-.002-.001-.001-.001-.002-.002-.002-.001-.001-.001-.001-.002-.002-.002-.001-.001-.001-.001-.001-.002-.002-.002-.001-.001-.001-.001-.001-.002-.002-.002-.001-.001-.001-.001-.001-.001-.002-.002-.002-.002-.001-.001-.001-.001-.001-.001-.002-.002-.002-.002-.002-.001-.001-.001-.001-.001-.001-.001-.001-.001-.002-.002-.002-.002-.002-.002-.002-.002-.002-.001-.001-.001-.001-.001-.001-.001-.001-.001-.001-.001-.001-.001-.001-.001-.001-.001-.001-.001-.001-.001-.002-.002h-2V10.65h2zm0-.498v-.001-.002-.001-.002-.001-.002-.001-.002-.002-.002-.001-.002-.001-.002-.001-.001-.002-.001-.002-.001-.002-.002-.002-.001-.002-.001-.001-.002-.001-.002-.001-.001-.002-.001-.002-.002-.002-.001-.002-.002-.002-.001-.001-.002-.001-.001-.002-.001-.002-.002-.002-.001-.001-.002-.001-.001-.002-.001-.001-.002-.001-.001-.002-.001-.001-.002-.001-.001-.002-.001-.001-.002-.002-.002-.002-.001-.002-.001-.001-.002-.002-.002-.002-.001-.002-.002-.002-.002-.001-.002-.002-.001-.002-.002-.001-.002V10 10v-.002-.002-.001-.002-.002-.001-.002-.002-.001-.001-.002-.002-.001-.002-.002-.001-.001-.002-.002-.001-.001-.002-.002-.001-.001-.001-.002-.002-.001-.001-.002-.002-.001-.001-.001-.002-.002-.001-.001-.001-.001-.002-.002-.001-.001-.001-.001-.002-.002-.001-.001-.001-.001-.002-.002-.002-.001-.001-.001-.001-.002-.002-.002-.001-.001-.001-.001-.001V9.9v-.002-.002-.002-.001-.001-.001-.001-.001-.001-.001-.001-.001-.002-.002-.002-.002-.002-.001-.001-.001-.001-.001-.001-.001-.001-.001-.001-.001-.001-.001-.001-.001-.001-.001-.001-.001-.001-.001-.001-.001-.001-.001-.001-.001-.001-.001-.001-.001-.001-.001-.001-.001-.001-.001-.001-.001-.001-.001-.001-.001-.002-.002-.002-.002-.001-.001-.001-.001-.001-.001-.001-.001-.002-.002-.002-.001-.001-.001-.001-.001-.002-.002V9.8 9.8v-.001-.001-.002-.002-.001-.001-.001-.001-.002-.001-.001-.001-.001-.002-.001-.001-.001-.001-.002-.001-.001-.001-.002-.001-.001-.002-.001-.001-.001-.002-.001-.001-.002-.001-.001-.002-.001-.001-.002-.001-.002-.001-.002-.001-.001-.002-.001-.002-.001-.001-.001-.001-.001-.001-.002-.001-.002-.002-.001-.001-.001-.002-.001-.001-.001-.001-.001-.001-.001-.002-.002-.002-.002-.001-.001V9.7 9.7v-.001-.001-.001-.002-.001-.001-.001-.002-.001-.001-.001-.001-.001-.001-.001-.001-.001-.001-.001-.001-.001-.001-.001-.001-.001-.001-.001-.001-.001-.001-.001-.001-.001-.001-.001-.001-.001-.001-.001-.001-.001-.001-.001-.001-.001h-2V10.151h2zm0-.498v-.001-.002-.001-.002-.001-.002-.001-.002-.001-.002-.001-.002-.001-.002-.001-.002-.001-.002-.001-.002-.001-.002-.001-.002-.001-.002-.001-.002-.001-.002-.001-.002-.001-.002-.001-.002-.001-.002-.001-.002-.001-.002-.001-.002-.002-.001-.002-.001-.002-.001-.002-.001-.002-.001-.002-.002-.001-.002-.001-.002-.001-.002-.002-.001-.002-.001-.002-.001-.002-.002-.001-.002-.001-.002-.002-.001-.002-.001-.002-.002-.001-.002-.001-.002-.002-.001-.002-.001-.002-.002-.001-.002-.001-.002-.002-.001-.002-.002V9.5v-.002-.001-.002-.002-.001-.002-.002-.001-.002-.002-.001-.002-.002-.001-.002-.001-.002-.002-.001-.002-.002-.001-.002-.002-.001-.002-.002-.001-.002-.002-.001-.002-.002-.001-.002-.002-.001-.002-.002-.002-.001-.002-.002-.001-.002-.002-.001-.002-.002-.001-.002-.002-.002-.001-.002-.002-.001-.002V9.4 9.4v-.001-.002-.002-.001-.002-.002-.002-.001-.002-.002-.002-.001-.002-.002-.001-.002-.002-.002-.001-.002-.002-.002-.001-.002-.002-.002-.001-.002-.002-.002-.001-.002-.002-.002-.001-.002-.002-.002-.001-.002-.002-.002-.001-.002-.002-.002-.002-.001-.002-.002-.002-.001-.002-.002-.002-.002V9.3v-.002-.002-.002-.001-.002-.002-.002-.002-.001-.002-.002-.002-.002-.001-.002-.002-.002-.002-.001-.002-.002-.002-.002-.001-.002-.002-.002-.002-.001-.002-.002-.002-.002-.002-.001-.002-.002-.002-.002-.001-.002-.002-.002-.002-.002-.001-.002-.002-.002-.002-.002-.001-.002-.002V9.2v-.002-.002-.001-.002-.002-.002-.002-.002-.002-.001-.002-.002-.002-.002-.002-.001-.002-.002-.002-.002-.002-.002-.001-.002-.002-.002-.002-.002-.002-.001-.002-.002-.002-.002-.002-.002-.002-.001-.002-.002-.002-.002-.002-.002-.002-.001-.002-.002-.002-.002-.002-.002-.002V9.1v-.002-.002-.002-.002-.002-.002-.002-.001-.002-.002-.002-.002-.002-.002-.002-.002-.001-.002-.002-.002-.002-.002-.002-.002-.002-.002-.001-.002-.002-.002-.002-.002-.002-.002-.002-.002-.001-.002-.002-.002-.002-.002-.002-.002-.002-.002-.002-.001-.002-.002-.002V9v-.002-.002-.002-.002-.002-.002-.001-.002-.002-.002-.002-.002-.002-.002-.002-.002-.002-.002-.001-.002-.002-.002-.002-.002-.002-.002-.002-.002-.002-.002-.002-.002-.001-.002-.002-.002-.002-.002-.002-.002-.002-.002-.002-.002-.002-.002-.001-.002-.002-.002-.002V8.9v-.002-.002-.002-.002-.002-.002-.002-.002-.002-.001-.002-.002-.002-.002-.002-.002-.002-.002-.002-.002-.002-.002-.002-.002-.002-.001-.002-.002-.002-.002-.002-.002-.002-.002-.002-.002-.002-.002-.002-.002-.002-.002-.001-.002-.002-.002-.002-.002-.002-.002-.002V8.8v-.002-.002-.002-.002-.002-.002-.002-.001-.002-.002-.002-.002-.002-.002-.002-.002-.002-.002-.002-.002-.002-.002-.002-.002-.002-.002-.001-.002-.002-.002-.002h-2V9.653h2zm0-.913v-.002-.002-.002-.002-.002-.002-.002-.002-.002-.002-.002-.001-.002-.002-.002-.002-.002-.002-.002-.002V8.7v-.002-.001-.002-.002-.002-.002-.002-.002-.002-.002-.002-.001-.002-.002-.002-.002-.002-.002-.002-.001-.002-.002-.002-.002-.002-.002-.001-.002-.002-.002-.002-.002-.002-.001-.002-.002-.002-.002-.002-.001-.002-.002-.002-.002-.002-.001-.002-.002-.002-.002-.001-.002V8.6v-.002-.002-.001-.002-.002-.002-.002-.001-.002-.002-.002-.002-.001-.002-.002-.002-.001-.002-.002-.002-.002-.001-.002-.002-.002-.001-.002-.002-.002-.001-.002-.002-.002-.001-.002-.002-.002-.001-.002-.002-.001-.002-.002-.002-.001-.002-.002-.001-.002-.002-.002-.001-.002-.002-.001-.002V8.5 8.5v-.001-.002-.002-.001-.002-.002-.001-.002-.002-.001-.002-.002-.001-.002-.002-.001-.002-.002-.001-.002-.002-.001-.002-.002-.001-.002-.002-.001-.002-.002-.001-.002-.001-.002-.002-.001-.002-.002-.001-.002-.001-.002-.002-.001-.002-.002-.001-.002-.001-.002-.002-.001-.002-.001-.002-.001-.002-.002-.001V8.4 8.4v-.002-.002-.001-.002-.001-.002-.001-.002-.002-.001-.002-.001-.002-.001-.002-.001-.002-.002-.001-.002-.001-.002-.001-.002-.001-.002-.001-.002-.001-.002-.001-.002-.001-.002-.002-.001-.002-.001-.002-.001-.002-.001-.002-.001-.002-.001-.002-.001-.002-.001-.001-.002-.001-.002-.001-.002-.001-.002-.001-.002-.001-.002-.001-.002-.001V8.3v-.002-.001-.002-.001-.002-.001-.002-.001-.001-.002-.001-.002-.001-.002-.001-.002-.002-.002-.001-.002-.001-.001-.002-.001-.002-.001-.001-.002-.001-.002-.001-.001-.002-.001-.002-.001-.001-.002-.001-.001-.002-.001-.002-.001-.001-.002-.001-.001-.002-.001-.002-.002-.002-.002-.002-.002-.002-.001-.001-.002-.001-.001-.002-.002-.002V8.2v-.002-.002-.001-.002-.001-.001-.002-.001-.001-.002-.002-.001-.002-.001-.001-.002-.002-.001-.002-.001-.001-.002-.002-.001-.002-.002-.001-.002-.002-.001-.002-.002-.001-.002-.002-.001-.002-.002-.001-.001-.002-.002-.001-.002-.002-.001-.001-.002-.002-.001-.001-.002-.002-.001-.001-.002-.002-.001-.001-.001-.002-.002-.001-.001V8.1v-.002-.001-.001-.001-.001-.002-.002-.001-.001-.001-.001-.002-.002-.001-.001-.001-.001-.002-.002-.002-.001-.001-.001-.001-.002-.002-.002-.001-.001-.001-.001-.001-.002-.002-.002-.001-.001-.001-.001-.001-.001-.001-.002-.002-.002-.002-.002-.001-.001-.001-.001-.001-.001-.001-.001-.001-.001-.001-.001-.001-.001-.002-.002-.002-.002-.002-.002-.002-.002-.002V8v-.002-.002-.002-.001h-2V8.74h2zm0-.747v-.001-.001-.001-.001-.001-.001-.001-.001-.001-.001-.001-.001-.001-.001-.001-.001-.001-.001-.001-.001-.001-.001-.001-.001-.001-.001-.001-.001-.001-.001-.001-.002-.002-.002-.002-.002-.002-.001-.001-.001-.001-.001-.001-.001-.001-.001-.001-.002-.002-.002-.002-.001-.001-.001-.001-.001-.001-.001-.002-.002-.002-.001-.001-.001-.001-.001-.001-.002-.002-.002-.001-.001-.001-.001-.001V7.9v-.002-.002-.001-.001-.001-.002-.002-.002-.001-.001-.001-.002-.002-.002-.001-.001-.001-.002-.002-.001-.001-.001-.001-.002-.002-.001-.001-.001-.002-.002-.001-.001-.001-.001-.002-.002-.001-.001-.001-.002-.002-.001-.001-.001-.002-.002-.001-.001-.001-.002-.002-.001-.001-.001-.002-.002-.001-.001-.002-.002-.001-.001-.001-.002-.002-.001-.001-.002V7.8 7.8v-.001-.002-.002-.001-.001-.002-.002-.001-.001-.002-.002-.001-.001-.002-.002-.001-.001-.002-.002-.001-.001-.002-.002-.001-.001-.002-.002-.001-.001-.002-.002-.001-.001-.002-.002-.001-.002-.002-.001-.001-.002-.002-.001-.001-.002-.002-.001-.002-.002-.001-.001-.002-.002-.001-.001-.002-.002-.001-.002-.002-.001-.001-.002-.002-.001V7.7v-.002-.002-.001-.002-.002-.001-.001-.002-.002-.001-.001-.002-.002-.001-.002-.002-.001-.001-.002-.002-.001-.001-.002-.002-.001-.002-.002-.001-.001-.002-.002-.001-.001-.002-.002-.001-.001-.002-.002-.001-.002-.002-.001-.001-.002-.002-.001-.001-.002-.002-.001-.001-.002-.002-.001-.001-.002-.002-.001-.001-.002-.002-.001-.001V7.6v-.002-.002-.001-.001-.002-.002-.001-.001-.002-.002-.001-.001-.001-.002-.002-.001-.001-.001-.002-.002-.001-.001-.002-.002-.001-.001-.001-.002-.002-.001-.001-.001-.001-.002-.002-.001-.001-.001-.002-.002-.001-.001-.001-.001-.002-.002-.001-.001-.001-.001-.002-.002-.001-.001-.001-.001-.002-.002-.002-.001-.001-.001-.002-.002-.002-.001-.001-.001-.001-.002V7.5v-.002-.001-.001-.001-.001-.002-.002-.002-.001-.001-.001-.001-.001-.001-.002-.002-.002-.002-.001-.001-.001-.001-.001-.001-.002-.002-.002-.002-.002-.001-.001-.001-.001-.001-.001-.001-.001-.001-.001-.001-.001-.002-.002-.002-.002-.002-.002-.002-.002-.002-.002-.002-.002-.002-.002-.002-.002-.002h-2V7.992h2zm0-.582V7.41v-.002-.001-.001-.002-.001V7.4 7.4v-.002-.001-.002-.001-.001-.002-.001-.002-.001-.002-.001-.001-.002-.001-.002-.001-.002-.002-.002-.001-.002-.002-.002-.001-.002-.002-.002-.001-.001-.002-.001-.002-.001-.001-.002-.001-.001-.002-.001-.002-.002-.002-.001-.001-.002-.001-.001-.002-.001-.001-.002-.001-.001-.002-.001-.001-.002-.001-.001-.002-.001-.001-.002-.001-.001-.002-.001-.001-.002-.002-.002-.002-.001-.002-.001-.001-.002-.002-.001-.002-.001-.001-.002-.002-.001-.002-.002-.001-.002-.002-.001-.002-.002-.001-.002-.002-.001-.002-.002-.001-.002-.002-.001-.001-.002-.002-.001-.001-.002-.002-.001-.002-.002-.001-.001-.002-.002-.001-.001-.001-.002-.002-.001-.001-.001-.002-.002-.001-.001-.001-.002V7.2 7.2v-.001-.001-.002-.002-.001-.001-.001-.001-.002-.002-.002-.001-.001-.001-.002-.002-.002-.001-.001-.001-.001-.002-.002-.002-.001-.001-.001-.001-.001-.001-.001-.002-.002-.002-.002-.001-.001-.001-.001-.001-.001-.001-.001-.002-.002-.002-.002-.002-.002-.002-.001-.001-.001-.001-.001-.001-.001-.001-.001-.001-.001-.001-.001-.001-.001-.001-.001-.001-.001-.001-.001-.001-.001-.001-.001-.001-.001-.002-.002-.002-.002-.002-.002-.001-.001-.001-.001-.001-.001-.001-.001-.001-.002-.002-.002-.001-.001-.001-.001-.001-.002-.002-.001-.001-.001-.001-.001-.002-.002-.001-.001-.001-.001-.002-.001-.001-.001-.001-.002-.001-.001-.001-.001-.002-.001-.001-.001-.002-.001-.001-.001-.002-.001-.001-.001-.002-.001-.001-.002-.001-.001-.002-.001-.001-.002-.001-.002-.001-.002-.001-.001V7 7v-.002-.001-.002-.001-.001-.001-.002-.001-.002-.001-.001-.001-.002-.001-.001-.001-.001-.001-.002-.002-.002-.001-.001-.001-.001-.001-.001-.002-.002-.001-.001-.001-.001-.001-.002-.001-.001-.001-.002-.001-.002-.001-.002-.001-.001-.001-.001-.001-.002-.001-.001-.001-.001-.001-.001-.001-.001-.001-.001-.001-.001-.001-.001-.001-.001-.001-.001-.001-.001-.001-.001h-2V7.412h2zm0-.498a1.207 1.207 0 00-.048-.338c-.016-.06-.036-.12-.045-.144l-.012-.038c.001.004.006.02.01.046a.811.811 0 01.012.142h-2a1.196 1.196 0 00.048.338c.017.06.037.12.045.144l.013.038c-.001-.004-.006-.02-.01-.046a.798.798 0 01-.013-.142h2zm-.376-1.039l-.124-.125-.125-.124-1.414 1.414.125.125.124.124 1.414-1.414zm-.249-.249a1.248 1.248 0 00-.368-.253c-.085-.038-.168-.065-.189-.072-.04-.013-.02-.008.007.005a.753.753 0 01.218.154L10.75 6.873c.137.137.28.212.369.253.084.038.167.065.188.072.041.013.021.008-.007-.005a.755.755 0 01-.218-.154l1.414-1.414zm-.843-.44A8.436 8.436 0 009.963 5v2c.485 0 .91.069 1.298.147l.392-1.962zM9.963 5c-.681 0-1.276.021-1.756.067-.43.04-.914.112-1.265.288l.894 1.788c-.02.01.12-.043.561-.085C8.79 7.02 9.315 7 9.963 7V5zm-3.021.355c-.102.05-.605.264-.862.779l1.788.894a.523.523 0 01-.136.17l.015-.009.09-.045-.895-1.79zm-.675.519c-.068.068-.14.148-.204.238-.056.08-.146.222-.194.413-.048.193-.084.596.224.948.283.324.647.357.798.357v-2c.109 0 .442.023.707.326.29.331.249.704.211.855-.037.15-.102.24-.114.257-.02.028-.029.035-.014.02L6.267 5.874zm.428 1.937c.136.027.226.062.275.088.05.027.033.03.002-.016l1.664-1.11c-.383-.575-1.032-.82-1.549-.923l-.392 1.96zm.215-.035l.083.166 1.789-.895-.083-.166-1.79.895zm.27.426a.77.77 0 01-.183-.289c0-.004 0-.002.003.01l.013.054.02.087c.018.067.04.15.072.245l1.897-.633c-.025-.076-.028-.105-.062-.237a1.757 1.757 0 00-.08-.251 1.233 1.233 0 00-.266-.4L7.18 8.201zm-.075.107c.022.067.031.146.031.514h2c0-.297.01-.716-.134-1.147l-1.897.633zm.031.514V10.15h2v-.002-.002-.002-.002-.002-.002-.002-.002-.002-.001-.002-.003-.002-.002-.002-.002-.002-.002-.002-.002-.002-.002-.002-.002-.002-.002-.002-.002-.002-.002-.002-.002-.002-.002-.002-.002-.002-.002-.003-.002-.002-.002-.002-.002-.002-.002-.002-.002-.003-.002-.002-.002-.002-.002-.002-.003-.002-.002-.002-.002-.002-.002-.003-.002-.002-.002-.002-.003-.002-.002-.002-.002-.003-.002-.002-.002-.002-.003-.002-.002-.002-.003-.002-.002-.002-.002-.003-.002-.002-.002-.003-.002-.002-.003-.002-.002-.002-.003-.002-.002-.002-.003-.002-.002-.003-.002-.002-.003-.002-.002-.003-.002-.002-.003-.002-.002-.003-.002-.002-.003-.002-.002-.003-.002-.002-.003-.002-.002-.003-.002-.003-.002-.002-.003-.002-.003-.002-.002-.003-.002-.003-.002-.002-.003-.002-.003-.002-.002-.003-.002-.003-.002-.003-.002-.003-.002-.002V9.8 9.8v-.003-.002-.003-.002-.003-.002-.003-.002-.003-.002-.002-.003-.002-.003-.002-.003-.002-.003-.002-.003-.002-.003-.002-.003-.003-.002-.003-.002-.003-.002-.003-.002-.003-.002-.003-.002-.003-.002V9.7v-.003-.002-.003-.002-.003-.002-.003-.003-.002-.003-.002-.003-.002-.003-.003-.002-.003-.002-.003-.003-.002-.003-.002-.003-.003-.002-.003-.002-.003-.003-.002-.003-.002-.003-.003-.002-.003-.003V9.6v-.003-.003-.002-.003-.003-.002-.003-.002-.003-.003-.002-.003-.003-.002-.003-.003-.002-.003-.003-.002-.003-.003-.002-.003-.003-.003-.002-.003-.003-.002-.003-.003-.002-.003-.003-.003-.002-.003-.003-.002-.003-.003-.003-.002-.003-.003-.002-.003-.003-.003-.002-.003-.003-.003-.002-.003-.003-.002-.003-.003-.003-.002-.003-.003-.003-.002-.003-.003-.003-.003-.002-.003-.003V9.4v-.002-.003-.003-.003-.002-.003-.003-.003-.003-.002-.003-.003-.003-.002-.003-.003-.003-.003-.002-.003-.003-.003-.003-.002-.003-.003-.003-.003-.002-.003-.003-.003-.003-.003-.002-.003-.003-.003-.003-.002-.003-.003-.003-.003-.003-.002-.003-.003-.003-.003-.003-.002-.003-.003-.003-.003-.003-.002-.003-.003-.003-.003-.003-.003-.002-.003-.003-.003-.003-.003V9.2v-.003-.003-.003-.003-.003-.003-.003-.002-.003-.003-.003-.003-.003-.003-.002-.003-.003-.003-.003-.003-.003-.003-.002-.003-.003-.003-.003-.003-.003-.003-.002-.003-.003-.003-.003-.003-.003-.003-.003-.002-.003-.003-.003-.003-.003-.003-.003-.003-.002-.003-.003-.003-.003-.003-.003-.003-.003-.003-.002-.003-.003-.003-.003-.003-.003-.003-.003-.003-.002-.003-.003-.003-.003-.003-.003-.003-.003-.003-.003-.002-.003-.003-.003-.003-.003-.003-.003-.003-.003-.003-.002-.003-.003-.003-.003-.003-.003-.003-.003-.003-.003-.003-.002-.003-.003-.003-.003-.003-.003-.003-.003-.003-.003-.003-.002-.003-.003-.003-.003-.003-.003-.003-.003-.003-.003-.003-.002-.003-.003-.003h-2zm0 1.328c0 .138-.013.25-.031.378-.015.106-.052.32-.052.535h2c0-.034.005-.068.032-.252.023-.163.051-.383.051-.66h-2zm-.083.913c0 .014-.002-.002.012-.04a.487.487 0 01.115-.169l1.414 1.415c.304-.304.46-.742.46-1.206h-2zm-.06.051a2.668 2.668 0 00-.078.172c-.024.057-.015.034-.005.015.01-.02.078-.16.236-.287a.925.925 0 01.575-.203v2a1.074 1.074 0 00.978-.615c.03-.061.06-.136.062-.14a.726.726 0 01.02-.047l-1.788-.895zm.728.697l-1-.001v-.001-.002-.004a1.01 1.01 0 01.012-.144.927.927 0 01.905-.765v2a1.073 1.073 0 001.08-1.008 1.092 1.092 0 00.003-.067v-.004-.002-.001l-1-.001zm-.083-.917a1.188 1.188 0 00-.478.101l-.028.012c-.005.002.017-.007.05-.016a.533.533 0 01.124-.014v2a1.471 1.471 0 00.569-.113l.045-.02c.009-.003.001 0-.013.006a.817.817 0 01-.269.044v-2zm-.332.083a.818.818 0 01.228.033.365.365 0 01.079.035.489.489 0 01.068.059l-1.414 1.414c.14.14.301.239.426.301.093.047.329.158.613.158v-2zm.115-.06a.174.174 0 01.026.014l-.005-.004-.004-.004s.007.008.015.025l-1.789.895c.18.36.503.682.863.862l.894-1.789zm-.155-.229c-.06-.059-.168-.202-.31-.487l-1.79.895c.19.379.413.734.686 1.007l1.414-1.415zm-.31-.487c-.094-.185-.245-.438-.312-.557a2.74 2.74 0 01-.216-.474l-1.897.632c.11.33.245.597.365.813.141.254.197.334.27.48l1.79-.894zM6.373 9.04l-.166-.332-1.789.894.166.332 1.789-.894zm-.166-.332c-.08-.162-.231-.463-.381-.838l-1.857.743c.182.456.364.819.45.99l1.788-.895zm-.381-.838c-.091-.227-.182-.43-.264-.616a15.35 15.35 0 01-.234-.546l-1.857.743c.09.227.181.43.263.616.084.188.16.358.235.546l1.857-.743zm-.532-1.238c-.157-.313-.333-.488-.437-.592L3.444 7.454c.044.045.048.05.05.053h.001v.001a.205.205 0 01.01.019l1.79-.895zM4.15 5.747h-.083v2h.083v-2zm-.083 1l.707-.707-.001-.001-.002-.002a.299.299 0 00-.025-.024 1.327 1.327 0 00-.176-.14 1.213 1.213 0 00-.669-.209v2a.836.836 0 01-.44-.126.603.603 0 01-.098-.08l-.002-.002v-.001l.706-.708zm-.166-1.083a.825.825 0 01.331.068l-.008-.004-.054-.026a1.176 1.176 0 00-.518-.12v2a.825.825 0 01-.331-.07c-.003 0-.004-.001.008.005l.054.026a1.176 1.176 0 00.518.12V5.665zm-.249-.083H.664v2h2.989v-2zm-2.989 0c-.486 0-.951.122-1.288.46L.79 7.453a.52.52 0 01-.194.128c-.031.01-.018 0 .068 0v-2zm-1.288.46l-.083.082L.707 7.537l.083-.083L-.624 6.04zM0 6.83h-1V6.997h2v-.001-.001-.001-.001-.001-.001-.001-.001-.001-.001-.001-.001-.001-.001-.001-.001-.001-.001-.001-.001-.001-.001-.001-.001-.001-.001-.001-.001-.001-.001-.001-.001-.001-.001-.001-.001-.001-.001-.001-.001-.001-.001-.001-.001-.001-.001-.001-.001-.001-.001-.001-.001-.001-.001-.001-.001-.001-.001-.001-.001-.001-.001-.001-.001-.001-.001-.001-.001-.001-.001-.001-.001-.001-.001-.001-.001-.001-.001-.001-.001-.001-.001-.001-.001-.001-.001-.001-.001-.001-.001-.001-.001-.001-.001V6.9 6.9v-.001-.001-.001-.001-.001-.001-.001-.001-.001-.001-.001-.001-.001-.001-.001-.001-.001-.001-.001-.001-.001-.001-.001-.001-.001-.001-.001-.001-.001-.001-.001-.001-.001-.001-.001-.001-.001-.001-.001-.001-.001-.001-.001-.001-.001-.001-.001-.001-.001-.001-.001-.001-.001-.001-.001-.001-.001-.001-.001-.001-.001-.001-.001-.001-.001-.001-.001-.001-.001H0zm-1 .165c0 .043-.002.173.03.331.031.158.087.305.159.449L.977 6.88c-.01-.022.003 0 .014.054A.49.49 0 011 7.001v-.005h-2zm.16.717C-.41 8.747.105 9.774.6 10.764l1.789-.894c-.501-1.002-.983-1.967-1.383-2.926l-1.846.769zm1.457 3.083c.503.923 1.02 1.787 1.338 2.342l1.736-.992c-.347-.608-.826-1.404-1.319-2.308l-1.755.958zm1.392 2.427c.195.273.364.537.563.835.19.286.402.592.645.885l1.536-1.28a8.321 8.321 0 01-.517-.715c-.175-.262-.38-.58-.6-.887L2.01 13.223zm1.208 1.72c.202.242.356.435.466.582.122.162.157.225.155.22l1.789-.894c-.146-.29-.48-.716-.874-1.189l-1.536 1.28zm.808 1.063l.11.11.024.024.011.01.002.002.001.002.003.002.003.003.001.002h.001l.002.002c.004.005-.004-.003.001.002l.003.002.002.003.002.001.001.002.01.01.01.01.002.001.001.002c.003.002-.002-.002.001 0v.001l.001.001.002.001v.001l.003.003c.06.06-.04-.041.02.019l.018.018.034.034.032.032.002.002.002.002v.001l.002.001.002.002.004.004.002.002v.001l.002.001.015.016 1.414-1.415-.003-.003-.001-.001-.001-.001-.001-.001-.001-.001-.004-.004-.004-.004-.016-.016-.032-.032-.004-.004a.208.208 0 01-.004-.004l-.005-.005-.004-.004-.004-.004-.001-.001-.001-.001-.001-.001-.001-.001-.001-.001-.002-.002-.002-.002h-.001v-.002h-.001l-.002-.002-.037-.037-.198-.197-1.414 1.414zm.332.332l.25.249 1.414-1.414-.25-.25-1.414 1.415zm.25.249c.168.168.46.462.854.757l1.2-1.6a5.818 5.818 0 01-.64-.571l-1.415 1.414zm.854.757c.381.286.845.563 1.247.805l1.03-1.715c-.428-.257-.795-.478-1.077-.69l-1.2 1.6zm1.247.805c.527.316 1.136.514 1.61.672l.633-1.897c-.523-.174-.91-.308-1.214-.49l-1.029 1.715zm1.652.685c.63.18 1.299.31 2.016.19l-.329-1.972c-.278.046-.605.01-1.138-.141l-.55 1.923zm1.852.204h1.245v-2h-1.245v2zm1.245 0c.241 0 .487-.041.728-.148.237-.105.418-.252.56-.394l-1.414-1.414c-.024.024-.008.002.042-.02a.306.306 0 01.065-.02c.018-.004.026-.004.02-.004v2zm1.289-.542l.083-.083L11.414 17l-.083.083 1.415 1.414zm.375-.79a.9.9 0 01-.224.595c-.019.022-.036.038-.027.03a1.22 1.22 0 00.179-.227 1.092 1.092 0 00.155-.564h-2a.9.9 0 01.224-.594l.028-.03a1.274 1.274 0 00-.18.226 1.092 1.092 0 00-.155.564h2zm.083-.166v-.001-.001-.001-.001-.001-.001-.001-.001-.001-.001-.001-.001-.001-.001-.001-.001-.001-.001-.001-.001-.001-.001-.001-.001-.001-.001-.001-.001-.001-.001-.001-.001-.001-.001-.001-.001-.001-.001-.001-.001-.001-.001-.001-.001-.001-.001-.001-.001-.001-.001-.001-.001-.001-.001-.001-.001-.001-.001-.001-.001-.001-.001-.001-.001-.002-.001-.001-.001-.001-.001-.001-.001-.001-.001-.002-.001-.001-.001-.001-.001-.001-.002-.001-.001-.001-.001-.001-.001-.001-.001-.001-.001-.002-.001-.001-.001-.002-.001-.001-.001-.001-.001-.001-.001-.001-.001-.001-.001-.001-.001-.001-.002-.001-.001-.001-.001-.001-.002-.001-.002-.001-.002-.001-.002-.001-.002-.001-.001-.001-.002-.001-.001-.001-.002-.001-.001-.001-.002-.001-.001-.001-.001-.001-.002-.002-.002-.001-.001-.001-.001-.001-.001-.001-.001-.001-.001-.001-.001-.001-.001-.002-.002-.002-.001-.001-.001-.001-.001-.002-.002-.001-.002-.002-.001-.002-.002-.001-.002-.001-.002-.002-.001-.002-.001-.002-.001-.002-.001-.002-.001-.002-.001-.001-.002-.001-.002-.001-.001-.002-.001-.002-.001-.001-.002-.001-.001-.002-.001-.001-.001-.002-.001-.001-.002-.001-.001-.001-.002-.001-.001-.001-.002-.001-.001-.001-.002-.002-.001-.001-.001-.002-.001-.001-.001-.001-.002-.002-.001-.001-.001-.001-.002-.002-.001-.001-.001-.001-.001-.002-.002-.002-.001-.001-.001-.001-.001-.001-.002-.002-.002-.002-.001-.001-.001-.001-.001-.001-.001-.001-.001-.001-.001-.002h-2V17.54h2zm0-.332c0-.367.01-.446.032-.514l-1.897-.632c-.144.43-.135.85-.135 1.146h2zm.032-.514c.062-.184.094-.346.11-.42.02-.088.02-.066.002-.03l-1.789-.894c-.1.201-.143.39-.165.49-.025.111-.034.157-.055.222l1.897.632zm.112-.45l.01-.018v-.001c.003-.004.007-.009.052-.053l-1.415-1.415c-.103.104-.28.28-.436.593l1.789.894zm.062-.072l.114-.114.037-.038.01-.01a.036.036 0 01.004-.003v-.001l-.706-.707-.707-.708-.001.001-.003.003-.01.01-.038.038-.115.114 1.415 1.415zm-.541.127h.083v-2h-.083v2zm.53-.106a.612.612 0 01-.444.053.293.293 0 01-.13-.074l1.415-1.415a1.707 1.707 0 00-.71-.427 1.393 1.393 0 00-1.026.074l.895 1.789zm-.421.104c.14.093.294.247.387.386l1.664-1.109a3.524 3.524 0 00-.942-.941l-1.109 1.664zm.387.386c.233.35.566.677.872.983l1.414-1.414c-.357-.358-.523-.53-.622-.678l-1.664 1.11zm.872.983c.16.16.323.324.467.456.126.115.32.285.54.396l.895-1.79c.04.02.05.033.025.013a1.867 1.867 0 01-.108-.094 14.547 14.547 0 01-.405-.395l-1.414 1.414zm.9.79l.249.165 1.11-1.664-.25-.166-1.11 1.664zm.356.228c.173.086.392.196.712.303l.633-1.897a3.077 3.077 0 01-.45-.195l-.895 1.789zm.712.303c.406.135.703.134.898.134v-2c-.087 0-.118 0-.15-.004a.54.54 0 01-.115-.027l-.633 1.897zm.927.134l2.823-.083-.059-2-2.823.084.06 1.999zm2.793-.083c.448 0 .852-.142 1.112-.271l-.895-1.79a.671.671 0 01-.116.045.411.411 0 01-.1.016v2zm1.112-.271c.124-.062.342-.182.52-.405.207-.258.282-.552.282-.822h-2c0-.042.005-.11.032-.194a.734.734 0 01.125-.233c.095-.12.189-.156.146-.135l.895 1.789zm.802-1.227v-.001-.001-.001-.001-.001-.001-.001-.001-.001-.001-.001-.001-.001-.001-.001-.001-.001-.001-.001-.001-.001-.001-.001-.001-.001-.001-.002-.001-.001-.001-.001-.001-.002-.001-.002-.001-.002-.001-.001-.001-.001-.001-.001-.002-.001-.001-.001-.002-.002-.001-.001-.001-.002-.002-.002-.001-.001-.001-.001-.001-.001-.001-.001-.001-.001-.001-.001-.001-.001-.001-.001-.002-.002-.002-.002-.001-.001-.001-.001-.001-.002-.002-.001-.001-.001-.002-.002-.001-.001-.001-.002-.002-.001-.002-.002-.001-.002-.002-.001-.002-.002-.001-.002-.001-.001-.001-.002-.001-.002-.002-.001-.002-.001-.002-.002-.001-.001-.001-.001-.002-.002-.001-.002-.001-.002-.002-.001-.002-.001-.002-.001-.001-.001-.002-.001-.002-.001-.001-.001-.002-.001-.002-.001-.001-.001-.002-.001-.002-.001-.001-.001-.002-.001-.002-.002-.001-.002-.002-.001-.002-.001-.001-.001-.002-.002-.001-.002-.002-.001-.001-.001-.002-.002-.001-.001-.001-.002-.002-.001-.001-.001-.001-.001-.002-.002-.002-.002-.001-.001-.001-.001-.001-.001-.001-.001-.001-.001-.001-.001-.001-.001-.002-.002-.002-.001-.001-.001-.001-.001-.002-.001-.001-.001-.001-.001-.002-.001-.002-.001-.001-.001-.001-.001-.001-.001-.001-.001-.001-.001-.001-.001-.002-.001-.001-.002-.001-.001-.001-.001-.001-.001-.001-.001-.002-.001-.001-.001-.001-.001-.001-.001-.001-.001-.002-.001-.001-.001h-2V17.54h2zm-.293-1.039c-.03-.03.028.018.076.139.026.064.04.127.047.183.005.045.004.08.004.053h-2c0 .05-.006.262.092.506.09.225.231.398.367.533l1.414-1.414z" fill="#fff" mask="url(#ga)"/></svg></svg>