<svg width="30" height="30" viewBox="0 0 30 30" fill="none" xmlns="http://www.w3.org/2000/svg">
<g clip-path="url(#clip0_34_1303)">
<path d="M25.8716 7.8612C24.8021 4.4058 22.0239 1.60473 18.6212 0.550921C14.9977 -0.571208 11.2201 0.0379327 8.25713 2.22213C6.8374 3.26868 5.65932 4.64909 4.85031 6.21395C4.01418 7.83131 3.57227 9.65217 3.57227 11.4798C3.57227 13.9728 4.36088 16.342 5.85291 18.3312L15.0009 30L24.1376 18.3461L24.149 18.3312C26.3818 15.3541 27.0097 11.5379 25.8716 7.8612ZM22.7478 17.269L15.0009 27.1513L7.254 17.269C5.9957 15.588 5.33055 13.5863 5.33055 11.4798C5.33055 8.40166 6.81461 5.46993 9.30045 3.63746C11.8091 1.78819 15.0168 1.27543 18.1011 2.23051C20.9577 3.11516 23.2916 5.47192 24.1921 8.38104C25.1605 11.5101 24.6341 14.7491 22.7478 17.269Z" fill="#EDC5A2"/>
<path d="M15.0015 5.32568C11.6083 5.32568 8.84766 8.08633 8.84766 11.4796C8.84766 14.8728 11.6083 17.6334 15.0015 17.6334C18.3947 17.6334 21.1554 14.8728 21.1554 11.4796C21.1554 8.08633 18.3947 5.32568 15.0015 5.32568ZM15.0015 15.8752C12.5778 15.8752 10.6059 13.9033 10.6059 11.4796C10.6059 9.05582 12.5777 7.08391 15.0015 7.08391C17.4253 7.08391 19.3972 9.05576 19.3972 11.4796C19.3972 13.9033 17.4253 15.8752 15.0015 15.8752Z" fill="#EDC5A2"/>
</g>
<defs>
<clipPath id="clip0_34_1303">
<rect width="30" height="30" fill="white"/>
</clipPath>
</defs>
</svg>
