<svg width="26" height="26" viewBox="0 0 26 26" fill="none" xmlns="http://www.w3.org/2000/svg">
<path d="M21.9734 16.11L17.7629 11.1596L21.5027 9.02601C21.8681 8.8176 21.9953 8.35235 21.7869 7.98698C21.5785 7.62156 21.1131 7.4943 20.7478 7.70275C20.4351 7.88115 13.3484 11.9242 13.0003 12.1228C12.6505 11.9232 5.56207 7.87922 5.25276 7.70275C4.88734 7.49435 4.42223 7.62145 4.21368 7.98698C4.00527 8.35235 4.13243 8.81755 4.4979 9.02601L8.23768 11.1596L4.02721 16.11C3.75466 16.4305 3.79346 16.9111 4.11394 17.1837C4.43437 17.4563 4.91527 17.4173 5.18766 17.097L9.58415 11.9278L12.6228 13.6615C12.8568 13.7949 13.1439 13.7949 13.3777 13.6615L16.4164 11.9278L20.8129 17.097C21.0855 17.4175 21.5664 17.4561 21.8866 17.1837C22.2071 16.9112 22.2459 16.4305 21.9734 16.11Z" fill="#EDC5A2"/>
<path d="M23.7148 4.11328H2.28516C1.02512 4.11328 0 5.1384 0 6.39844V19.6016C0 20.8616 1.02512 21.8867 2.28516 21.8867H23.7148C24.9749 21.8867 26 20.8616 26 19.6016V6.39844C26 5.1384 24.9749 4.11328 23.7148 4.11328ZM24.4766 19.6016C24.4766 20.0216 24.1349 20.3633 23.7148 20.3633H2.28516C1.86514 20.3633 1.52344 20.0216 1.52344 19.6016V6.39844C1.52344 5.97843 1.86514 5.63672 2.28516 5.63672H23.7148C24.1349 5.63672 24.4766 5.97843 24.4766 6.39844V19.6016Z" fill="#EDC5A2"/>
</svg>
