<svg width="21" height="20" viewBox="0 0 21 20" fill="none" xmlns="http://www.w3.org/2000/svg">
<path d="M17.8662 6.89552L12.8932 6.17481L10.6701 1.68067C10.6094 1.55762 10.5095 1.45802 10.3861 1.39747C10.0766 1.24512 9.70057 1.37208 9.54583 1.68067L7.32276 6.17481L2.34973 6.89552C2.21262 6.91505 2.08727 6.9795 1.99129 7.07716C1.87526 7.19607 1.81133 7.35606 1.81353 7.52196C1.81574 7.68787 1.8839 7.84611 2.00304 7.96192L5.6011 11.46L4.75104 16.3994C4.73111 16.5143 4.74386 16.6325 4.78785 16.7405C4.83184 16.8486 4.90531 16.9422 4.99992 17.0107C5.09454 17.0792 5.20652 17.1199 5.32316 17.1282C5.43981 17.1365 5.55645 17.1121 5.65986 17.0576L10.108 14.7256L14.5561 17.0576C14.6775 17.1221 14.8185 17.1436 14.9537 17.1201C15.2945 17.0615 15.5237 16.7393 15.4649 16.3994L14.6148 11.46L18.2129 7.96192C18.3108 7.86622 18.3755 7.74122 18.3951 7.6045C18.4479 7.2627 18.209 6.9463 17.8662 6.89552V6.89552Z" fill="#EDC5A2"/>
</svg>
