<svg width="150" height="46" fill="none" xmlns="http://www.w3.org/2000/svg"><rect x=".791" y=".631" width="148.279" height="45" rx="6.27" stroke="url(#paint0_linear_3507_9654)" stroke-width=".738"/><path fill-rule="evenodd" clip-rule="evenodd" d="M44.715 16.828h2.62a4.14 4.14 0 001.677-.311c.45-.192.85-.485 1.169-.855a3.49 3.49 0 00.683-1.283c.15-.52.225-1.06.221-1.601a6.361 6.361 0 00-.175-1.493 3.445 3.445 0 00-.605-1.29 3.05 3.05 0 00-1.145-.905 4.21 4.21 0 00-1.802-.34h-2.642v8.078zm.497-.43V9.18h2.066c.222.001.443.015.664.04.25.027.498.082.737.163.252.087.492.207.712.357.243.169.45.384.61.633.193.306.338.64.429.99.118.462.173.938.164 1.415a4.6 4.6 0 01-.288 1.747c-.164.42-.42.8-.75 1.107-.298.27-.65.47-1.034.59a3.83 3.83 0 01-1.134.175h-2.176zm6.724-1.3c.108.352.284.68.517.966.227.277.512.5.835.656a2.796 2.796 0 002.282 0c.322-.155.607-.38.835-.656.232-.286.407-.614.516-.967.118-.38.177-.778.175-1.176a3.835 3.835 0 00-.175-1.171 2.957 2.957 0 00-.516-.967 2.447 2.447 0 00-.835-.664 2.797 2.797 0 00-2.282 0 2.44 2.44 0 00-.835.664 2.928 2.928 0 00-.517.967 3.835 3.835 0 00-.174 1.17c-.003.4.056.796.174 1.177zm.402-2.178c.09-.308.236-.597.428-.854.187-.248.426-.45.7-.594a2.2 2.2 0 011.918 0c.275.144.514.346.7.594.193.257.338.546.43.854a3.499 3.499 0 010 2.002 2.714 2.714 0 01-.43.854 2.109 2.109 0 01-.7.59 2.2 2.2 0 01-1.918 0 2.1 2.1 0 01-.7-.59 2.714 2.714 0 01-.428-.854 3.485 3.485 0 010-2.002zm5.477-1.906h-.464l1.845 5.814h.537l1.604-5.271h.022l1.593 5.271h.53l1.864-5.814h-.475l-1.623 5.316h-.023l-1.591-5.316h-.577l-1.58 5.316h-.023l-1.64-5.316zm7.745 5.814h.429v-3.145a3.226 3.226 0 01.142-.978c.084-.281.224-.543.411-.77a1.91 1.91 0 01.655-.503c.277-.124.578-.186.881-.18.321-.018.64.057.92.214.207.128.378.306.497.517.108.194.175.407.198.628.02.18.032.361.034.543v3.676h.43v-3.599c0-.12 0-.262-.013-.424a3.026 3.026 0 00-.067-.503 2.163 2.163 0 00-.186-.517 1.581 1.581 0 00-.937-.786 2.638 2.638 0 00-.865-.125c-.224 0-.448.031-.664.091a2.14 2.14 0 00-1.09.707c-.14.173-.25.37-.321.583h-.023v-1.243h-.43v5.814zm5.488-8.076v8.076h.43V8.752h-.43zm1.734 6.344c.108.352.283.68.516.967.228.277.513.5.836.656a2.793 2.793 0 002.28 0c.324-.156.609-.38.837-.656a2.86 2.86 0 00.516-.967c.119-.381.178-.778.176-1.177a3.813 3.813 0 00-.176-1.17 2.942 2.942 0 00-.516-.968 2.443 2.443 0 00-.836-.664 2.796 2.796 0 00-2.281 0c-.324.157-.61.384-.836.664a2.942 2.942 0 00-.516.967 3.815 3.815 0 00-.175 1.171c-.003.4.056.797.175 1.178v-.001zm.4-2.178a2.73 2.73 0 01.43-.854c.186-.248.425-.45.7-.594a2.198 2.198 0 011.918 0c.274.144.513.346.7.594.192.257.337.546.43.854.195.653.195 1.35 0 2.002a2.729 2.729 0 01-.43.854 2.093 2.093 0 01-.7.59 2.198 2.198 0 01-1.918 0 2.095 2.095 0 01-.7-.59 2.729 2.729 0 01-.43-.854 3.487 3.487 0 01.001-2v-.002zm10.13 3.06c0 .112.009.224.028.334a.667.667 0 00.108.265.54.54 0 00.231.182c.131.05.271.073.412.068.118 0 .236-.016.35-.046v-.363c-.104.02-.21.03-.316.034a.353.353 0 01-.226-.063.342.342 0 01-.113-.164.818.818 0 01-.04-.226c0-.083-.005-.166-.005-.249v-3.38a1.357 1.357 0 00-.48-1.08 2.323 2.323 0 00-1.53-.412 2.446 2.446 0 00-1.623.48c-.403.37-.627.896-.615 1.443h.43a1.52 1.52 0 01.524-1.165 1.95 1.95 0 011.259-.384c.251-.006.503.025.746.09.18.05.349.134.496.25a.99.99 0 01.373.804c.002.17-.01.34-.034.509a.578.578 0 01-.17.333.931.931 0 01-.4.204 3.927 3.927 0 01-.729.108l-.664.056a6.683 6.683 0 00-.728.113 2.193 2.193 0 00-.689.266c-.472.276-.75.794-.717 1.34-.037.47.151.93.508 1.239.42.292.925.434 1.435.402.26.001.518-.034.768-.106a2.31 2.31 0 00.627-.283 2.07 2.07 0 00.468-.412 1.76 1.76 0 00.295-.492h.023v.305h-.002zm0-1.37c-.01.147-.03.293-.062.436-.052.238-.15.464-.288.664-.171.25-.394.458-.655.61a2.191 2.191 0 01-1.163.267 1.801 1.801 0 01-1.118-.311 1.128 1.128 0 01-.407-.96 1.24 1.24 0 01.159-.663 1.17 1.17 0 01.411-.401c.178-.101.37-.172.57-.21a7.77 7.77 0 01.634-.096l.722-.068c.24-.019.48-.053.717-.101a.812.812 0 00.48-.26v1.095-.001zm6.764 2.219h.43V8.752h-.43v3.563h-.023a1.991 1.991 0 00-.83-1.063 2.516 2.516 0 00-1.316-.373 2.569 2.569 0 00-1.14.237c-.315.151-.59.372-.808.645a2.741 2.741 0 00-.48.969 4.62 4.62 0 00-.01 2.352c.089.348.242.675.45.967.206.279.472.506.78.664a2.693 2.693 0 002.45-.096 2.64 2.64 0 00.904-1.033h.022v1.245-.002zm-3.128-.459a1.972 1.972 0 01-.672-.59 2.65 2.65 0 01-.395-.854 3.757 3.757 0 01-.13-.99c-.001-.34.039-.677.118-1.007.073-.308.203-.6.385-.86.175-.247.404-.45.671-.593.304-.155.642-.231.983-.222.336-.007.668.07.965.227.27.146.5.353.672.605.178.262.31.553.39.86a3.787 3.787 0 010 1.967 2.64 2.64 0 01-.395.854 2.03 2.03 0 01-.664.6 1.918 1.918 0 01-.954.226 2.011 2.011 0 01-.973-.221l-.001-.002zm7.968-1.272c.108.352.283.68.516.967.228.277.513.5.836.656a2.793 2.793 0 002.28 0c.324-.156.609-.38.837-.656a2.86 2.86 0 00.516-.967c.119-.381.178-.778.176-1.177a3.844 3.844 0 00-.176-1.17 2.942 2.942 0 00-.516-.968 2.444 2.444 0 00-.836-.664 2.796 2.796 0 00-2.281 0c-.324.157-.61.384-.836.664a2.94 2.94 0 00-.516.967 3.81 3.81 0 00-.176 1.171c-.002.4.057.797.176 1.178v-.001zm.4-2.178a2.73 2.73 0 01.429-.854c.186-.248.425-.45.7-.594a2.199 2.199 0 011.918 0c.275.144.514.346.7.594.192.257.338.546.43.854.195.653.195 1.35 0 2.002a2.729 2.729 0 01-.43.854 2.093 2.093 0 01-.7.59 2.199 2.199 0 01-1.918 0 2.095 2.095 0 01-.7-.59 2.729 2.729 0 01-.43-.854 3.487 3.487 0 01.001-2v-.002zm5.781 3.91h.429v-3.145a3.273 3.273 0 01.141-.978 2.22 2.22 0 01.413-.77 1.91 1.91 0 01.655-.503 2.04 2.04 0 01.88-.18 1.69 1.69 0 01.921.214c.207.128.377.306.497.517.107.194.174.407.197.628.021.18.032.361.034.543v3.676h.428v-3.599c0-.12-.004-.262-.012-.424a3.047 3.047 0 00-.067-.503 2.202 2.202 0 00-.186-.517 1.591 1.591 0 00-.356-.458 1.691 1.691 0 00-.582-.328 2.626 2.626 0 00-.864-.125c-.224 0-.448.031-.664.091a2.136 2.136 0 00-1.089.707 1.83 1.83 0 00-.322.583h-.023v-1.243h-.429v5.814h-.001zm11.586-5.815h-1.264v-1.81h-.429v1.81h-1.073v.374h1.073v4.057a1.59 1.59 0 00.118.78.99.99 0 00.378.425c.168.097.355.155.548.17.212.018.426.02.638.005v-.37a3.977 3.977 0 01-.536-.011.856.856 0 01-.395-.13.63.63 0 01-.243-.311 1.555 1.555 0 01-.079-.554V11.39h1.264v-.377zm.517-2.262v8.076h.429v-3.144a3.241 3.241 0 01.141-.978 2.22 2.22 0 01.413-.77 1.91 1.91 0 01.655-.503c.278-.125.582-.186.887-.178.321-.018.64.057.92.214.207.128.378.306.497.517.107.194.175.407.198.628.022.22.034.4.034.543v3.676h.428v-3.601c0-.12-.003-.262-.011-.424a3.044 3.044 0 00-.067-.504 2.154 2.154 0 00-.186-.516 1.598 1.598 0 00-.938-.786 2.634 2.634 0 00-.864-.125c-.224 0-.448.03-.664.09a2.139 2.139 0 00-1.089.708c-.142.173-.251.37-.323.582h-.022V8.751h-.438zm11.439 5.226c0-.03 0-.07.006-.119.005-.05.005-.092.005-.13a3.616 3.616 0 00-.163-1.103 2.739 2.739 0 00-.481-.905 2.256 2.256 0 00-.784-.617 2.45 2.45 0 00-1.078-.226 2.486 2.486 0 00-1.158.255 2.446 2.446 0 00-.819.678c-.224.294-.39.628-.491.984-.11.38-.165.775-.164 1.171-.003.399.05.796.158 1.18.096.346.259.669.48.95.216.27.491.486.802.634.352.161.737.24 1.124.232.61.03 1.21-.163 1.688-.543.45-.407.744-.96.83-1.561h-.429a2.4 2.4 0 01-.702 1.273c-.386.32-.88.485-1.381.458a2.041 2.041 0 01-.935-.204 1.907 1.907 0 01-.664-.555 2.493 2.493 0 01-.402-.811 3.445 3.445 0 01-.136-.973v-.067h4.698l-.004-.001zm-4.686-.373c.023-.302.084-.6.182-.886.091-.274.233-.53.418-.752.185-.218.412-.395.668-.52.288-.136.604-.201.922-.192a1.889 1.889 0 011.512.709c.181.22.317.474.402.746.092.292.145.594.159.9h-4.258l-.005-.005zM42.988 36.056h.96l1.849-4.662h6.951l1.83 4.662h.955L49.801 21.52h-.976l-5.837 14.537zm3.09-5.436l3.233-8.225h.04l3.11 8.225H46.08zm11.058-5.029h-.752v14.212h.752v-5.925h.04a3.33 3.33 0 001.488 1.853 4.675 4.675 0 002.323.57 4.964 4.964 0 002.088-.408 3.984 3.984 0 001.467-1.129c.401-.51.696-1.095.866-1.721a7.963 7.963 0 00.285-2.198 7.618 7.618 0 00-.284-2.098 5.167 5.167 0 00-.864-1.751 4.238 4.238 0 00-1.464-1.201 4.554 4.554 0 00-2.083-.448 3.996 3.996 0 00-2.642.926c-.296.246-.55.538-.753.865a4.005 4.005 0 00-.406.856h-.06v-2.403zm2.007 9.64a3.181 3.181 0 01-1.18-1.058 4.359 4.359 0 01-.621-1.527 8.647 8.647 0 01-.184-1.802 7.842 7.842 0 01.204-1.802c.124-.549.35-1.07.664-1.537a3.45 3.45 0 011.192-1.08 4.085 4.085 0 013.577.01c.484.268.899.645 1.212 1.1.32.473.555.997.694 1.55a7.19 7.19 0 01-.01 3.604 4.532 4.532 0 01-.714 1.517 3.49 3.49 0 01-1.219 1.037 3.772 3.772 0 01-1.763.387 3.88 3.88 0 01-1.848-.4l-.004.002zm9.782-9.64h-.752v14.212h.752v-5.925h.04c.251.78.78 1.44 1.487 1.853a4.676 4.676 0 002.323.57 4.964 4.964 0 002.088-.408 3.968 3.968 0 001.467-1.129 4.82 4.82 0 00.866-1.721 7.966 7.966 0 00.286-2.198 7.613 7.613 0 00-.285-2.098 5.166 5.166 0 00-.864-1.751 4.23 4.23 0 00-1.464-1.201 4.552 4.552 0 00-2.083-.448 3.996 3.996 0 00-2.642.926c-.294.247-.546.54-.747.866a3.926 3.926 0 00-.406.856h-.062v-2.403h-.004zm2.007 9.64a3.179 3.179 0 01-1.18-1.058 4.373 4.373 0 01-.621-1.527 8.66 8.66 0 01-.184-1.802 7.848 7.848 0 01.204-1.802c.124-.549.35-1.07.664-1.537a3.457 3.457 0 011.192-1.08 4.083 4.083 0 013.577.01c.484.269.899.645 1.213 1.1.32.473.554.997.692 1.55a7.19 7.19 0 01-.01 3.604 4.53 4.53 0 01-.713 1.517 3.49 3.49 0 01-1.223 1.038 3.772 3.772 0 01-1.763.387 3.88 3.88 0 01-1.844-.402l-.004.002zm24.52-9.559a4.94 4.94 0 00-.509-2.056 3.984 3.984 0 00-1.189-1.395 5.063 5.063 0 00-1.728-.794 8.48 8.48 0 00-2.124-.254 7.265 7.265 0 00-1.728.213c-.56.133-1.092.36-1.575.672a3.575 3.575 0 00-1.138 1.202 3.453 3.453 0 00-.438 1.782 3.081 3.081 0 00.427 1.696c.285.442.668.81 1.119 1.08a6.217 6.217 0 001.585.663c.596.164 1.2.306 1.809.428.624.122 1.23.255 1.82.397a7.24 7.24 0 011.585.57c.444.219.831.54 1.128.937.3.44.45.965.427 1.496a2.822 2.822 0 01-.417 1.589 3.38 3.38 0 01-1.037 1.018 4.31 4.31 0 01-1.361.55 6.523 6.523 0 01-1.393.162 8.754 8.754 0 01-2.053-.234 4.664 4.664 0 01-1.696-.764 3.652 3.652 0 01-1.128-1.353 4.069 4.069 0 01-.346-2.026h-.894a5.194 5.194 0 00.457 2.382 4.32 4.32 0 001.31 1.598 5.37 5.37 0 001.952.896c.786.188 1.591.28 2.4.274a7.556 7.556 0 001.737-.213 5.097 5.097 0 001.646-.703 4.107 4.107 0 001.23-1.262 3.518 3.518 0 00.488-1.914 3.339 3.339 0 00-.427-1.761 3.434 3.434 0 00-1.128-1.14 6.252 6.252 0 00-1.585-.693 21.875 21.875 0 00-1.82-.437 75.177 75.177 0 01-1.81-.387 7.338 7.338 0 01-1.584-.54 3.107 3.107 0 01-1.119-.885 2.26 2.26 0 01-.426-1.425 2.715 2.715 0 01.386-1.497 2.96 2.96 0 01.986-.959 4.135 4.135 0 011.3-.499c.432-.091.87-.139 1.312-.143a6.88 6.88 0 011.84.235 4.211 4.211 0 011.453.702c.404.31.734.707.965 1.16.248.508.384 1.064.396 1.63h.895v.002zm6.239-.08h-2.27v-3.258h-.771v3.258h-1.931v.672h1.93v7.31a2.88 2.88 0 00.215 1.4c.147.317.383.582.68.764.301.176.638.28.986.306.382.034.766.037 1.149.01v-.672a7.193 7.193 0 01-.966-.02 1.538 1.538 0 01-.711-.235 1.13 1.13 0 01-.438-.56 2.821 2.821 0 01-.142-.997v-7.31h2.276v-.671l-.007.002zm.644 7.349c.194.634.508 1.225.925 1.74.41.499.923.902 1.504 1.181 1.307.583 2.8.583 4.106 0a4.434 4.434 0 001.504-1.18 5.159 5.159 0 00.926-1.741c.212-.686.319-1.4.315-2.117a6.94 6.94 0 00-.315-2.108 5.296 5.296 0 00-.926-1.74 4.392 4.392 0 00-1.504-1.192 5.037 5.037 0 00-4.106 0 4.401 4.401 0 00-1.504 1.192 5.312 5.312 0 00-.925 1.74 6.878 6.878 0 00-.315 2.108 6.983 6.983 0 00.319 2.118l-.004-.001zm.722-3.92a4.858 4.858 0 01.773-1.536 3.747 3.747 0 011.26-1.07 3.952 3.952 0 013.455 0c.494.259.925.624 1.26 1.07.346.463.608.983.773 1.537a6.283 6.283 0 010 3.604 4.903 4.903 0 01-.773 1.537 3.745 3.745 0 01-1.26 1.069 3.952 3.952 0 01-3.455 0 3.735 3.735 0 01-1.26-1.07 4.855 4.855 0 01-.773-1.536 6.264 6.264 0 01.004-3.604h-.004zm11.14-3.43h-.772v10.465h.772v-5.72a6.69 6.69 0 01.102-1.019 3.93 3.93 0 01.221-.774c.091-.224.211-.437.356-.631.155-.206.321-.403.498-.59a3.388 3.388 0 011.494-.897c.452-.129.925-.17 1.392-.121v-.774a4.857 4.857 0 00-1.372.152 4.527 4.527 0 00-1.199.5 3.646 3.646 0 00-.915.773 2.553 2.553 0 00-.516.96h-.061V25.59zm13.618 5.335c0-.054 0-.126.011-.214.01-.089.009-.166.009-.234a6.486 6.486 0 00-.295-1.985 4.932 4.932 0 00-.864-1.63 4.066 4.066 0 00-1.412-1.106 4.419 4.419 0 00-1.942-.407 4.47 4.47 0 00-2.083.458 4.37 4.37 0 00-1.476 1.222 5.304 5.304 0 00-.885 1.77 7.47 7.47 0 00-.295 2.107c-.005.72.091 1.436.285 2.128a4.84 4.84 0 00.864 1.71 4.1 4.1 0 001.443 1.14 4.596 4.596 0 002.022.418 4.53 4.53 0 003.039-.977 4.69 4.69 0 001.495-2.81h-.773a4.323 4.323 0 01-1.263 2.29 3.586 3.586 0 01-2.487.825 3.67 3.67 0 01-1.681-.368 3.426 3.426 0 01-1.203-.998 4.497 4.497 0 01-.724-1.466 6.207 6.207 0 01-.245-1.75v-.123h8.46zm-8.435-.672a6.352 6.352 0 01.329-1.59c.164-.495.42-.954.754-1.354a3.75 3.75 0 011.202-.937 3.66 3.66 0 011.651-.356c.54-.01 1.075.109 1.56.347.447.224.842.54 1.161.925.325.398.57.854.723 1.345a6.26 6.26 0 01.286 1.618h-7.663l-.003.002zM28.004 15.206c3.229 0 5.294 3.098 5.294 3.098a6.406 6.406 0 00-3.15 5.386 5.975 5.975 0 003.957 5.646s-3.124 7.357-6.63 7.357c-1.972 0-2.105-1.127-4.722-1.127-2.276 0-3.044 1.127-4.777 1.127-3.308 0-7.582-7.171-7.582-13.003 0-6.059 4.326-8.484 7.04-8.484 2.381 0 3.374 1.391 5.293 1.391 1.611 0 2.882-1.391 5.277-1.391zm-.556-6.178c.476 2.97-2.236 6.64-5.479 6.522-.476-3.78 3.019-6.323 5.48-6.522z" fill="#fff"/><defs><linearGradient id="paint0_linear_3507_9654" x1="74.931" y1="1" x2="74.931" y2="45.262" gradientUnits="userSpaceOnUse"><stop stop-color="#A7ACB1"/><stop offset=".099" stop-color="#BABFC3"/></linearGradient></defs></svg>