<svg width="150" height="46" fill="none" xmlns="http://www.w3.org/2000/svg"><rect x="1.111" y=".631" width="148.279" height="45" rx="6.27" stroke="#fff" stroke-opacity=".2" stroke-width=".738"/><path fill-rule="evenodd" clip-rule="evenodd" d="M114.036 36.582h-1.129V24.14h1.129v12.442Zm9.035-1.131v-5.656s-.314-2.32-3.737-2.32c-3.424 0-3.521 2.509-3.521 2.509h1.085s-.053-1.715 2.41-1.715c2.462 0 2.633 1.526 2.633 1.526v1.131h-2.258c-2.872 0-4.24 1.612-4.24 3.157 0 1.546.86 2.643 2.965 2.643a5.739 5.739 0 0 0 3.533-1.275v1.13h1.13v-1.13Zm-1.13-2.263c0 1.785-2.356 2.68-3.441 2.68s-1.985-.517-1.985-1.705c0-1.189 1.447-2.106 3.172-2.106h2.258v1.131h-.004Zm2.259-5.655h1.13l2.88 7.678 2.765-7.678h1.13s-3 10.386-3.388 11.31c-.388.926-1.998 1.371-3.136 1.371a2.356 2.356 0 0 1-1.023-.299l.283-.793c.238.105.498.154.758.142.503 0 1.376-1.164 1.376-1.164l.636-1.515-3.411-9.052Zm-16.556-.058a3.073 3.073 0 0 0-2.642 1.189v-1.131h-1.129v12.442h1.129v-4.524c.035.057.484 1.275 2.668 1.275 2.224 0 3.944-1.427 3.944-4.696 0-3.269-2.061-4.555-3.97-4.555Zm-.156 8.432c-1.824 0-2.448-2.661-2.483-2.719v-2.262c.035-.048.839-2.604 2.616-2.604 1.614 0 2.964 1.638 2.964 3.779 0 2.14-1.247 3.806-3.097 3.806ZM56.231 25.142s-1.468-1.493-5.142-1.493a6.798 6.798 0 0 0-7.072 6.678c0 2.839 1.965 6.423 6.851 6.423a20.349 20.349 0 0 0 5.363-.927v-2.202c0-1.082 1.345-1.564 1.345-1.564H53.06l-1.383.873a16.53 16.53 0 0 1 2.7-.164v2.73a4.795 4.795 0 0 1-2.185.49A6.414 6.414 0 0 1 45.91 29.6c0-3.72 2.663-5.295 4.977-5.295a4.82 4.82 0 0 1 3.62 1.71l-.423.692.68-.182 1.468-1.383Zm6.219 2.368a4.6 4.6 0 0 0-4.758 4.673 4.453 4.453 0 0 0 4.467 4.402c2.855 0 4.855-1.9 4.855-4.574a4.357 4.357 0 0 0-4.567-4.501h.003Zm.194 8.493c-2.164 0-3.185-3.335-3.185-5.022 0-1.687 1.146-2.889 2.467-2.889 1.884 0 3.184 2.219 3.184 4.81-.003.891-.305 3.101-2.469 3.101h.003Zm10.008-8.489a4.6 4.6 0 0 0-4.756 4.671 4.45 4.45 0 0 0 4.465 4.4c2.854 0 4.853-1.899 4.853-4.574a4.352 4.352 0 0 0-4.565-4.497h.003Zm.194 8.49c-2.162 0-3.183-3.334-3.183-5.017 0-1.682 1.145-2.887 2.465-2.887 1.883 0 3.184 2.218 3.184 4.806-.003.888-.306 3.098-2.47 3.098h.004Zm11.897-.062c-.936-.645-1.119-.953-1.119-1.233 0-.28.01-.505.675-1.136a3.212 3.212 0 0 0 1.274-2.485 3.108 3.108 0 0 0-1.196-2.562l1.138-.038 1.138-.674h-4.437a3.865 3.865 0 0 0-3.993 3.64c0 1.328 1.128 2.918 3.356 2.918a1.4 1.4 0 0 0 .386-.048 1.8 1.8 0 0 0-.135.684c.044.451.237.875.55 1.204 0 0-5.141.005-5.141 3.294 0 1.988 2.247 2.734 4.09 2.734 1.841 0 4.996-.991 4.996-3.524a3.32 3.32 0 0 0-1.585-2.774h.003Zm-2.44-2.148c-1.346 0-2.417-2.008-2.417-3.221 0-1.214.608-2.08 1.678-2.08 1.07 0 2.345 1.227 2.345 3.467-.003.78-.264 1.834-1.61 1.834h.004Zm-.101 7.628c-.623 0-3.27-.245-3.27-2.34 0-2.096 3.052-2.287 3.406-2.287.22 0 .441.017.659.05.94.831 1.982 1.243 1.982 2.543-.003 1.86-2.158 2.038-2.78 2.038l.003-.004Zm4.735-17.283.757-1.145 2.631.014c-.65.346-1.112.649-1.13 2.262-.016 1.614 0 9.05 0 9.05a1.866 1.866 0 0 0 1.292 1.516c.217-.01.435.018.641.085l-.803.664h-3.388s1.123-.7 1.13-1.13V24.138h-1.13Zm11.803 5.73a3.178 3.178 0 0 0-3.315-2.394 4.248 4.248 0 0 0-4.328 4.438c0 2.2 1.307 4.672 4.562 4.672a3.971 3.971 0 0 0 3.315-1.696 5.149 5.149 0 0 1-2.301.642c-1.813 0-3.919-1.908-3.919-4.71 0-1.89 1.319-2.649 2.145-2.649a1.633 1.633 0 0 1 1.814 1.753c-.148.263-3.9 1.79-3.9 1.79l1.501-.078 4.427-1.768Z" fill="#fff"/><path d="M50.3 10.21v.266c0 .64-.228 1.18-.685 1.623-.458.438-1.07.656-1.837.656-.782 0-1.429-.258-1.94-.774-.512-.517-.767-1.149-.767-1.896 0-.748.255-1.38.767-1.896.511-.516 1.158-.775 1.94-.775.477 0 .915.116 1.313.347.398.231.706.539.922.922l-.457.266a1.834 1.834 0 0 0-.723-.753 2.052 2.052 0 0 0-1.055-.28c-.644 0-1.17.21-1.579.627-.408.418-.612.932-.612 1.542s.204 1.124.612 1.542c.408.418.935.627 1.579.627.58 0 1.045-.145 1.394-.435.35-.296.549-.67.598-1.122h-2.051v-.487H50.3Zm2.517-1.32c.546 0 .986.194 1.32.583a1.991 1.991 0 0 1 .495 1.593h-3.239c.05.374.207.671.472.893.27.216.603.324.996.324.28 0 .521-.056.723-.17.207-.117.361-.27.465-.457l.428.251a1.77 1.77 0 0 1-.664.62c-.28.152-.6.228-.96.228-.58 0-1.052-.182-1.416-.546-.364-.363-.546-.826-.546-1.386 0-.551.18-1.011.539-1.38.359-.369.821-.553 1.387-.553Zm0 .472c-.384 0-.706.116-.967.347a1.387 1.387 0 0 0-.457.885h2.752c-.05-.389-.2-.691-.45-.907a1.302 1.302 0 0 0-.878-.325Zm4.45.088h-1.062v2.236c0 .201.04.346.118.435.08.084.197.128.355.133.157 0 .354-.005.59-.015v.428c-.517.079-.905.042-1.166-.11-.256-.153-.383-.443-.383-.871V9.45h-.775v-.472h.774v-.885l.487-.147v1.032h1.063v.472Zm3.15-1.357a.342.342 0 0 1-.25.103.342.342 0 0 1-.251-.103.342.342 0 0 1-.103-.25c0-.1.034-.183.103-.252a.342.342 0 0 1 .25-.103c.1 0 .183.035.252.103a.342.342 0 0 1 .103.251.342.342 0 0 1-.103.251Zm-.494 4.574V8.978h.487v3.689h-.487Zm3.475-3.217h-1.062v2.236c0 .201.04.346.118.435.079.084.197.128.354.133.158 0 .354-.005.59-.015v.428c-.516.079-.905.042-1.165-.11-.256-.153-.384-.443-.384-.871V9.45h-.774v-.472h.774v-.885l.487-.147v1.032h1.062v.472Zm5.747 2.752a1.879 1.879 0 0 1-1.372.553 1.904 1.904 0 0 1-1.94-1.932c0-.546.187-1.004.56-1.373a1.89 1.89 0 0 1 1.38-.56c.541 0 .998.187 1.372.56.379.37.568.827.568 1.373a1.87 1.87 0 0 1-.568 1.38Zm-2.405-.34c.28.281.625.421 1.033.421.408 0 .752-.14 1.033-.42.28-.285.42-.632.42-1.04 0-.409-.14-.753-.42-1.033a1.392 1.392 0 0 0-1.033-.428c-.408 0-.752.143-1.033.428-.28.28-.42.624-.42 1.033 0 .408.14.755.42 1.04Zm5.514-2.972c.448 0 .8.138 1.055.413.26.27.391.637.391 1.1v2.264h-.487v-2.265c0-.33-.088-.585-.265-.767-.172-.182-.418-.273-.738-.273-.354 0-.642.113-.863.34-.221.22-.332.565-.332 1.032v1.933h-.487V8.978h.487v.576c.275-.443.688-.664 1.24-.664Z" fill="#fff"/><path fill-rule="evenodd" clip-rule="evenodd" d="m36.404 24.337-5.134 2.865-4.115-4.095 4.115-4.095 5.134 2.864a1.328 1.328 0 0 1 0 2.461Zm-9.916-1.896L12.975 8.994c.396.07.777.213 1.122.422 1.662.935 10.293 5.754 16.318 9.117l-3.927 3.908ZM11.912 36.945a2.17 2.17 0 0 1-.577-1.328V10.59c.035-.494.239-.961.577-1.324l13.906 13.838-13.906 13.84Zm14.576-13.172 3.927 3.91C24.39 31.046 15.76 35.865 14.097 36.8a3.282 3.282 0 0 1-1.122.422l13.513-13.449Z" fill="#fff"/></svg>